# xmcd CD database file
# Copyright (C) 1993-1998 Ti Kan
#
# Track frame offsets:
#	182
#	18890
#	34495
#	55927
#	67785
#	79110
#	92340
#	109290
#	126530
#	140960
#	155577
#	171147
#
# Disc length: 2470 seconds
#
# Revision: 2
# Processed by: cddbd v1.4b41PL1 Copyright (c) Steve Scherf et al.
# Submitted via: CDValet v3.31 - Copyright (c) 1997 Greg Leichner
#
DISCID=a309a40c
DTITLE=Maria Creuza - Com Acucar e Com Afeto
DYEAR=1900
DGENRE=
TTITLE0=Com Acucar e Com Afeto
TTITLE1=Onde Anda Voce
TTITLE2=Obsessao - Nao Me Diga Adeus/ Pois E/ A Flor e o Espinh
TTITLE2=o
TTITLE3=A Noite do Meu Bem
TTITLE4=De Conversa em Conversa
TTITLE5=Caminhemos
TTITLE6=Apelo
TTITLE7=Dom de Iludir
TTITLE8=O Amor em Paz/ Brigas Nunca Mais/ Voce e Eu/ O Nosso Am
TTITLE8=or
TTITLE9=Folha Morta
TTITLE10=Comecaria Tudo Outra Vez
TTITLE11=Nossos Momentos
EXTD=
EXTT0=
EXTT1=
EXTT2=
EXTT3=
EXTT4=
EXTT5=
EXTT6=
EXTT7=
EXTT8=
EXTT9=
EXTT10=
EXTT11=
PLAYORDER=
